<svg width="24" height="24" viewBox="0 0 24 24" fill="none" xmlns="http://www.w3.org/2000/svg">
<path d="M13.7082 2.09966C14.9688 2.09966 15.9348 3.22009 15.7492 4.46697L15.0627 11.2594C14.662 14.32 12.054 16.6089 8.96731 16.6089C5.80502 16.6089 3.15863 14.2098 2.84943 11.0627L2.38115 4.39205C2.24465 3.16937 3.20155 2.09961 4.43184 2.09961H4.51856" stroke="#21303A" strokeMiterlimit="10"/>
<path d="M6.27348 3.49409H5.91308C5.14294 3.49409 4.51855 2.86975 4.51855 2.09956C4.5186 1.32941 5.14294 0.705078 5.91308 0.705078H6.27348C7.04362 0.705078 7.668 1.32941 7.668 2.09961C7.668 2.86975 7.04367 3.49409 6.27348 3.49409Z" stroke="#21303A" strokeMiterlimit="10"/>
<path d="M12.2901 3.49413H11.9297C11.1595 3.49413 10.5352 2.8698 10.5352 2.09961C10.5352 1.32946 11.1595 0.705078 11.9297 0.705078H12.2901C13.0602 0.705078 13.6846 1.32941 13.6846 2.09961C13.6846 2.8698 13.0603 3.49413 12.2901 3.49413Z" stroke="#21303A" strokeMiterlimit="10"/>
<path d="M8.9668 16.609V17.973C8.9668 20.9123 11.3496 23.2951 14.2889 23.2951C17.2281 23.2951 19.6109 20.9123 19.6109 17.973V13.6006" stroke="#21303A" strokeMiterlimit="10"/>
<path d="M19.6111 13.6001C20.7274 13.6001 21.6324 12.6952 21.6324 11.5789C21.6324 10.4626 20.7274 9.55762 19.6111 9.55762C18.4948 9.55762 17.5898 10.4626 17.5898 11.5789C17.5898 12.6952 18.4948 13.6001 19.6111 13.6001Z" stroke="#21303A" strokeMiterlimit="10"/>
</svg>
