<svg width="24" height="24" viewBox="0 0 24 24" fill="none" xmlns="http://www.w3.org/2000/svg">
<g clip-path="url(#clip0_208_6897)">
<path d="M11.5312 13.6406V16.4531" stroke="#21303A" strokeMiterlimit="10" strokeLinecap="round" strokeLinejoin="round"/>
<path d="M10.125 15.0469H12.9375" stroke="#21303A" strokeMiterlimit="10" strokeLinecap="round" strokeLinejoin="round"/>
<mask id="mask0_208_6897" style="mask-type:luminance" maskUnits="userSpaceOnUse" x="0" y="0" width="24" height="24">
<path d="M0 1.90735e-06H24V24H0V1.90735e-06Z" fill="white"/>
</mask>
<g mask="url(#mask0_208_6897)">
<path d="M16.2187 3.98438H6.84375V0.703125H16.2187V3.98438Z" stroke="#21303A" strokeMiterlimit="10" strokeLinecap="round" strokeLinejoin="round"/>
</g>
<path d="M15.2812 3.98438H7.78125V6.79688H15.2812V3.98438Z" stroke="#21303A" strokeMiterlimit="10" strokeLinecap="round" strokeLinejoin="round"/>
<path d="M6.14062 3.98438H16.9219" stroke="#21303A" strokeMiterlimit="10" strokeLinecap="round" strokeLinejoin="round"/>
<path d="M19.0312 9.89062H4.03125" stroke="#21303A" strokeMiterlimit="10" strokeLinecap="round" strokeLinejoin="round"/>
<mask id="mask1_208_6897" style="mask-type:luminance" maskUnits="userSpaceOnUse" x="0" y="0" width="24" height="24">
<path d="M0 1.90735e-06H24V24H0V1.90735e-06Z" fill="white"/>
</mask>
<g mask="url(#mask1_208_6897)">
<path d="M22.7812 19.5469C22.7812 21.618 21.1023 23.2969 19.0312 23.2969C16.9602 23.2969 15.2812 21.618 15.2812 19.5469C15.2812 17.4758 16.9602 15.7969 19.0312 15.7969C21.1023 15.7969 22.7812 17.4758 22.7812 19.5469Z" stroke="#21303A" strokeMiterlimit="10" strokeLinecap="round" strokeLinejoin="round"/>
<path d="M21.6832 16.8949L16.3799 22.1982" stroke="#21303A" strokeMiterlimit="10" strokeLinecap="round" strokeLinejoin="round"/>
<path d="M4.03125 23.2969C2.47795 23.2969 1.21875 22.0377 1.21875 20.4844V14.8594C1.21875 13.3061 2.47795 12.0469 4.03125 12.0469C5.58455 12.0469 6.84375 13.3061 6.84375 14.8594V20.4844C6.84375 22.0377 5.58455 23.2969 4.03125 23.2969Z" stroke="#21303A" strokeMiterlimit="10" strokeLinecap="round" strokeLinejoin="round"/>
<path d="M4.03125 23.2969C2.47795 23.2969 1.21875 22.0377 1.21875 20.4844V17.6719H6.84375V20.4844C6.84375 22.0377 5.58455 23.2969 4.03125 23.2969Z" stroke="#21303A" strokeMiterlimit="10" strokeLinecap="round" strokeLinejoin="round"/>
<path d="M4.03125 12.0469V9.60938C4.03125 8.05608 5.29045 6.79688 6.84375 6.79688H16.2187C17.772 6.79688 19.0312 8.05608 19.0312 9.60938V15.7969" stroke="#21303A" strokeMiterlimit="10" strokeLinecap="round" strokeLinejoin="round"/>
<path d="M19.0312 23.2969H4.03125" stroke="#21303A" strokeMiterlimit="10" strokeLinecap="round" strokeLinejoin="round"/>
</g>
</g>
<defs>
<clipPath id="clip0_208_6897">
<rect width="24" height="24" fill="white"/>
</clipPath>
</defs>
</svg>
